# xmcd
#
# Track frame offsets: 
#        150
#        19454
#        32976
#        49844
#        64941
#        82831
#        109119
#        131028
#        150154
#        164939
#        184551
#        204640
#        225903
#
# Disc length: 3211 seconds
#
# Revision: 0
# Processed by: cddbd v1.5.2PL0 Copyright (c) Steve Scherf et al.
# Submitted via: ExactAudioCopy v0.99pb3
#
DISCID=aa0c890d
DTITLE=Ty Curtis Band - Cross That Line
DYEAR=2010
DGENRE=Blues
TTITLE0=Fools Games
TTITLE1=What He Don't Know
TTITLE2=Low Down Broken And Blue
TTITLE3=I Want You With Me
TTITLE4=Tell Me
TTITLE5=Do I Love You Too Much
TTITLE6=Five Long Years
TTITLE7=Just Who You Are
TTITLE8=Cryin' The Blues
TTITLE9=Cross That Line
TTITLE10=I Must Confess
TTITLE11=Bad News
TTITLE12=What He Don't Know
EXTD=
EXTT0=
EXTT1=
EXTT2=
EXTT3=
EXTT4=
EXTT5=
EXTT6=
EXTT7=
EXTT8=
EXTT9=
EXTT10=
EXTT11=
EXTT12=
PLAYORDER=
